<svg width="170" height="36" viewBox="0 0 170 36" fill="none" xmlns="http://www.w3.org/2000/svg">
<rect x="1.5" y="1.5" width="33" height="33" rx="9.5" stroke="black" stroke-width="3"/>
<rect x="10" y="10" width="4" height="11" rx="2" fill="#FFCB00"/>
<rect x="22" y="10" width="4" height="11" rx="2" fill="#FFCB00"/>
<path d="M67.2246 19.4541H62.1621V22.8818H68.1035V25H59.5254V12.2031H68.0859V14.3389H62.1621V17.3887H67.2246V19.4541ZM79.3359 12.2031V20.6318C79.3359 22.0322 78.8965 23.1396 78.0176 23.9541C77.1445 24.7686 75.9492 25.1758 74.4316 25.1758C72.9375 25.1758 71.751 24.7803 70.8721 23.9893C69.9932 23.1982 69.5449 22.1113 69.5273 20.7285V12.2031H72.1641V20.6494C72.1641 21.4873 72.3633 22.0996 72.7617 22.4863C73.166 22.8672 73.7227 23.0576 74.4316 23.0576C75.9141 23.0576 76.667 22.2783 76.6904 20.7197V12.2031H79.3359ZM86.2354 20.3154H84.1348V25H81.498V12.2031H86.2529C87.7646 12.2031 88.9307 12.54 89.751 13.2139C90.5713 13.8877 90.9814 14.8398 90.9814 16.0703C90.9814 16.9434 90.791 17.6729 90.4102 18.2588C90.0352 18.8389 89.4639 19.3018 88.6963 19.6475L91.4648 24.877V25H88.6348L86.2354 20.3154ZM84.1348 18.1797H86.2617C86.9238 18.1797 87.4365 18.0127 87.7998 17.6787C88.1631 17.3389 88.3447 16.873 88.3447 16.2812C88.3447 15.6777 88.1719 15.2031 87.8262 14.8574C87.4863 14.5117 86.9619 14.3389 86.2529 14.3389H84.1348V18.1797ZM100.693 19.4541H95.6309V22.8818H101.572V25H92.9941V12.2031H101.555V14.3389H95.6309V17.3887H100.693V19.4541ZM107.127 19.8672L105.756 21.3438V25H103.119V12.2031H105.756V18.0039L106.916 16.4131L110.177 12.2031H113.42L108.876 17.8896L113.552 25H110.414L107.127 19.8672ZM121.77 22.3633H117.146L116.268 25H113.464L118.228 12.2031H120.671L125.461 25H122.657L121.77 22.3633ZM117.858 20.2275H121.058L119.449 15.4375L117.858 20.2275ZM133.292 21.6426C133.292 21.1445 133.116 20.7637 132.765 20.5C132.413 20.2305 131.78 19.9492 130.866 19.6562C129.952 19.3574 129.229 19.0645 128.695 18.7773C127.242 17.9922 126.516 16.9346 126.516 15.6045C126.516 14.9131 126.709 14.2979 127.096 13.7588C127.488 13.2139 128.048 12.7891 128.774 12.4844C129.507 12.1797 130.327 12.0273 131.235 12.0273C132.149 12.0273 132.964 12.1943 133.679 12.5283C134.394 12.8564 134.947 13.3223 135.34 13.9258C135.738 14.5293 135.938 15.2148 135.938 15.9824H133.301C133.301 15.3965 133.116 14.9424 132.747 14.6201C132.378 14.292 131.859 14.1279 131.191 14.1279C130.547 14.1279 130.046 14.2656 129.688 14.541C129.331 14.8105 129.152 15.168 129.152 15.6133C129.152 16.0293 129.36 16.3779 129.776 16.6592C130.198 16.9404 130.816 17.2041 131.631 17.4502C133.131 17.9014 134.224 18.4609 134.909 19.1289C135.595 19.7969 135.938 20.6289 135.938 21.625C135.938 22.7324 135.519 23.6025 134.681 24.2354C133.843 24.8623 132.715 25.1758 131.297 25.1758C130.312 25.1758 129.416 24.9971 128.607 24.6396C127.799 24.2764 127.181 23.7812 126.753 23.1543C126.331 22.5273 126.12 21.8008 126.12 20.9746H128.766C128.766 22.3867 129.609 23.0928 131.297 23.0928C131.924 23.0928 132.413 22.9668 132.765 22.7148C133.116 22.457 133.292 22.0996 133.292 21.6426ZM147.267 21.0098C147.12 22.3574 146.637 23.3887 145.816 24.1035C145.002 24.8184 143.915 25.1758 142.556 25.1758C141.606 25.1758 140.766 24.9385 140.033 24.4639C139.307 23.9893 138.744 23.3184 138.346 22.4512C137.947 21.5781 137.745 20.582 137.739 19.4629V17.8018C137.739 16.665 137.938 15.6572 138.337 14.7783C138.735 13.8994 139.307 13.2227 140.051 12.748C140.801 12.2676 141.662 12.0273 142.635 12.0273C144.006 12.0273 145.087 12.3994 145.878 13.1436C146.675 13.8818 147.138 14.9043 147.267 16.2109H146.177C145.907 14.0371 144.727 12.9502 142.635 12.9502C141.475 12.9502 140.549 13.3838 139.857 14.251C139.172 15.1182 138.829 16.3164 138.829 17.8457V19.4102C138.829 20.8867 139.163 22.0645 139.831 22.9434C140.505 23.8223 141.413 24.2617 142.556 24.2617C143.687 24.2617 144.539 23.9922 145.113 23.4531C145.688 22.9082 146.042 22.0938 146.177 21.0098H147.267ZM156.961 18.8652H150.976V24.0859H157.857V25H149.895V12.2031H157.813V13.126H150.976V17.9512H156.961V18.8652ZM161.224 19.7881V25H160.143V12.2031H164.502C165.832 12.2031 166.881 12.543 167.648 13.2227C168.422 13.9023 168.809 14.8369 168.809 16.0264C168.809 17.2275 168.437 18.1562 167.692 18.8125C166.954 19.4629 165.882 19.7881 164.476 19.7881H161.224ZM161.224 18.874H164.502C165.551 18.874 166.351 18.625 166.901 18.127C167.452 17.6289 167.728 16.9346 167.728 16.0439C167.728 15.1592 167.452 14.4561 166.901 13.9346C166.356 13.4072 165.58 13.1377 164.572 13.126H161.224V18.874Z" fill="black"/>
</svg>
