<svg width="571" height="571" viewBox="0 0 571 571" fill="none" xmlns="http://www.w3.org/2000/svg">
<path d="M436.667 126.933C436.667 126.933 384.374 80.1684 310.807 90.7205C237.239 101.273 179.751 158.304 131.947 203.276C84.1425 248.248 76.8109 310.818 112.316 355.162C147.82 399.506 193.832 374.211 258.606 398.455C323.38 422.7 336.947 438.996 404.531 424.025C472.114 409.053 515.807 326.441 499.111 245.336C482.415 164.231 436.667 126.933 436.667 126.933Z" fill="#FFC100"/>
<path opacity="0.8" d="M436.667 126.933C436.667 126.933 384.374 80.1684 310.807 90.7205C237.239 101.273 179.751 158.304 131.947 203.276C84.1425 248.248 76.8109 310.818 112.316 355.162C147.82 399.506 193.832 374.211 258.606 398.455C323.38 422.7 336.947 438.996 404.531 424.025C472.114 409.053 515.807 326.441 499.111 245.336C482.415 164.231 436.667 126.933 436.667 126.933Z" fill="white"/>
<path d="M445.825 276.718C440.641 273.897 438.277 276.25 436.393 273.897C434.508 271.545 441.589 265.401 427.428 259.268C427.428 259.268 426.491 246.067 407.146 245.564C387.8 245.062 392.997 258.777 387.812 262.078C382.627 265.378 381.211 260.193 376.015 263.494C370.819 266.794 373.183 273.395 368.946 274.343C364.709 275.291 359.033 270.094 353.849 273.395C348.664 276.695 348.653 279.527 346.3 279.527C343.948 279.527 339.22 277.643 336.399 279.527C333.578 281.412 330.266 283.776 330.266 283.776H449.605C449.605 283.776 451.022 279.55 445.825 276.718Z" fill="#FFC100"/>
<path opacity="0.5" d="M445.825 276.718C440.641 273.897 438.277 276.25 436.393 273.897C434.508 271.545 441.589 265.401 427.428 259.268C427.428 259.268 426.491 246.067 407.146 245.564C387.8 245.062 392.997 258.777 387.812 262.078C382.627 265.378 381.211 260.193 376.015 263.494C370.819 266.794 373.183 273.395 368.946 274.343C364.709 275.291 359.033 270.094 353.849 273.395C348.664 276.695 348.653 279.527 346.3 279.527C343.948 279.527 339.22 277.643 336.399 279.527C333.578 281.412 330.266 283.776 330.266 283.776H449.605C449.605 283.776 451.022 279.55 445.825 276.718Z" fill="white"/>
<path d="M415.128 111.722C407.888 107.759 404.588 111.06 401.95 107.759C399.312 104.459 409.201 95.928 389.422 87.3287C389.422 87.3287 388.109 68.874 361.078 68.2117C334.046 67.5493 341.31 86.6664 334.058 91.2801C326.806 95.8937 324.819 88.642 317.579 93.2557C310.339 97.8694 313.616 107.108 307.689 108.421C301.762 109.735 293.837 102.483 286.642 107.108C279.447 111.733 279.39 115.673 276.09 115.673C272.79 115.673 266.2 113.035 262.249 115.673C258.298 118.311 253.672 121.6 253.672 121.6H420.404C420.404 121.6 422.38 115.673 415.128 111.722Z" fill="#FFC100"/>
<path opacity="0.5" d="M415.128 111.722C407.888 107.759 404.588 111.06 401.95 107.759C399.312 104.459 409.201 95.928 389.422 87.3287C389.422 87.3287 388.109 68.874 361.078 68.2117C334.046 67.5493 341.31 86.6664 334.058 91.2801C326.806 95.8937 324.819 88.642 317.579 93.2557C310.339 97.8694 313.616 107.108 307.689 108.421C301.762 109.735 293.837 102.483 286.642 107.108C279.447 111.733 279.39 115.673 276.09 115.673C272.79 115.673 266.2 113.035 262.249 115.673C258.298 118.311 253.672 121.6 253.672 121.6H420.404C420.404 121.6 422.38 115.673 415.128 111.722Z" fill="white"/>
<path d="M224.654 195.99C219.47 193.158 217.106 195.522 215.221 193.158C213.337 190.794 220.406 184.673 206.257 178.54C206.257 178.54 205.309 165.327 185.975 164.836C166.641 164.345 171.825 178.049 166.629 181.35C161.433 184.65 160.028 179.465 154.844 182.766C149.659 186.066 152.012 192.667 147.763 193.615C143.515 194.563 137.862 189.366 132.666 192.667C127.47 195.967 127.481 198.799 125.118 198.799C122.754 198.799 118.049 196.915 115.216 198.799C112.384 200.684 109.084 203.048 109.084 203.048H228.4C228.4 203.048 229.839 198.822 224.654 195.99Z" fill="#FFC100"/>
<path opacity="0.5" d="M224.654 195.99C219.47 193.158 217.106 195.522 215.221 193.158C213.337 190.794 220.406 184.673 206.257 178.54C206.257 178.54 205.309 165.327 185.975 164.836C166.641 164.345 171.825 178.049 166.629 181.35C161.433 184.65 160.028 179.465 154.844 182.766C149.659 186.066 152.012 192.667 147.763 193.615C143.515 194.563 137.862 189.366 132.666 192.667C127.47 195.967 127.481 198.799 125.118 198.799C122.754 198.799 118.049 196.915 115.216 198.799C112.384 200.684 109.084 203.048 109.084 203.048H228.4C228.4 203.048 229.839 198.822 224.654 195.99Z" fill="white"/>
<path d="M276.684 410.629H277.574C279.367 410.56 283.284 410.435 284.358 410.435C285.706 410.435 287.967 413.37 285.934 416.076C283.901 418.783 282.508 421.946 279.619 422.62C276.729 423.294 277.129 425.11 275.051 427.359C272.972 429.609 267.376 430.077 264.442 429.392C261.507 428.707 264.213 414.044 264.67 413.404C265.127 412.764 270.129 416.053 276.684 410.629Z" fill="white" stroke="#263238" stroke-linecap="round" stroke-linejoin="round"/>
<path d="M279.619 422.597C282.554 421.923 283.901 418.76 285.934 416.053C286.348 415.538 286.616 414.919 286.708 414.264C286.801 413.609 286.715 412.941 286.459 412.331C285.693 415.058 284.183 417.517 282.097 419.434C280.064 421.021 278.488 420.119 277.358 421.467C276.227 422.814 275.074 425.532 269.226 425.532C267.173 425.571 265.124 425.321 263.14 424.79C263.14 427.222 263.471 429.141 264.487 429.358C267.422 430.043 273.064 429.586 275.096 427.325C277.129 425.064 276.684 423.271 279.619 422.597Z" fill="white" stroke="#263238" stroke-linecap="round" stroke-linejoin="round"/>
<path d="M315.283 418.988C315.283 418.988 314.61 427.119 315.055 428.695C315.5 430.271 320.023 431.859 322.512 431.402C325.002 430.945 329.513 427.793 329.513 427.793C329.513 427.793 339.448 423.956 343.057 421.695C346.665 419.434 347.796 416.727 345.089 416.053C342.383 415.38 333.35 413.564 330.643 412.89C327.937 412.216 327.925 414.694 322.055 416.053C316.186 417.412 315.283 418.988 315.283 418.988Z" fill="white" stroke="#263238" stroke-linecap="round" stroke-linejoin="round"/>
<path d="M343.742 418.988C338.441 422.006 332.934 424.646 327.263 426.891C323.316 428.515 318.894 428.556 314.918 427.005C314.913 427.572 314.963 428.138 315.066 428.695C315.523 430.271 320.034 431.859 322.524 431.402C325.013 430.945 329.524 427.793 329.524 427.793C329.524 427.793 339.459 423.956 343.068 421.695C346.152 419.765 347.419 417.515 346.037 416.476C345.496 417.493 344.706 418.357 343.742 418.988Z" fill="white" stroke="#263238" stroke-linecap="round" stroke-linejoin="round"/>
<path d="M275.507 259.679C275.507 259.679 272.938 274.08 272.024 282.154C271.111 290.228 268.964 310.293 268.964 319.897C268.964 329.501 268.37 346.94 268.37 346.94C268.37 346.94 267.491 353.929 265.972 360.244C264.453 366.559 263.791 378.573 264.008 384.466C264.224 390.358 264.224 406.712 264.224 406.712C264.105 408.613 264.105 410.52 264.224 412.422C264.441 414.603 264.875 417.218 267.057 417.218C269.238 417.218 273.166 417.218 274.697 415.916C276.667 414.021 277.836 411.442 277.963 408.71C278.18 405.444 279.105 394.31 279.276 391.695C279.447 389.079 287.133 356.795 288.001 350.034C288.869 343.274 289.314 339.562 289.314 339.562L297.377 297.24L299.786 297.674C299.786 297.674 313.49 349.155 313.49 352.65C313.49 356.144 311.96 372.064 313.707 381.005C315.455 389.947 315.192 420.462 315.192 420.462C316.069 421.416 317.203 422.098 318.458 422.426C320.422 422.86 326.098 421.546 328.279 418.063C330.46 414.58 331.328 408.242 331.328 406.495C331.328 404.748 333.293 368.98 333.293 359.81C333.293 350.64 332.425 339.528 332.425 338.649C332.425 337.769 330.243 296.338 329.593 292.626C328.942 288.915 321.519 258.811 321.519 258.811C321.519 258.811 298.85 265.572 275.507 259.679Z" fill="#263238" stroke="#263238" stroke-linecap="round" stroke-linejoin="round"/>
<path d="M256.31 227.612C256.31 227.612 253.478 234.818 253.044 238.518C252.61 242.218 255.009 248.99 257.19 250.304C259.371 251.617 266.566 248.773 267.662 247.026C268.758 245.279 273.76 233.939 273.76 233.939C267.481 233.436 261.453 231.25 256.31 227.612Z" fill="white" stroke="#263238" stroke-linecap="round" stroke-linejoin="round"/>
<path d="M325.322 232.02L316.722 270.152H322.329L330.563 231.266L325.322 232.02Z" fill="#263238" stroke="#263238" stroke-linecap="round" stroke-linejoin="round"/>
<path d="M332.322 201.974C332.322 201.974 336.433 201.232 337.552 201.974C338.671 202.716 338.694 206.462 338.694 207.958C338.694 209.454 337.552 213.565 337.952 215.438C338.352 217.311 344.69 226.15 347.305 231.769C349.92 237.388 346.563 246.341 343.571 250.041C340.579 253.741 334.583 240.448 332.71 235.96C330.837 231.472 327.857 203.801 327.857 203.801L332.322 201.974Z" fill="white" stroke="#263238" stroke-linecap="round" stroke-linejoin="round"/>
<path d="M340.316 225.248C340.316 225.248 346.254 235.4 346.471 238.678C346.688 241.956 345.158 248.956 343.639 251.331C342.12 253.707 338.192 251.663 335.348 250.132C332.715 248.813 330.629 246.61 329.456 243.908C328.142 241.076 324.613 233.973 324.613 233.973C324.613 233.973 334.218 231.358 340.316 225.248Z" fill="white" stroke="#263238" stroke-linecap="round" stroke-linejoin="round"/>
<path d="M286.848 182.72C284.101 183.364 281.459 184.394 279.002 185.781C275.29 187.962 269.398 192.324 267.434 195.807C265.469 199.29 259.588 214.353 256.744 220.029C253.901 225.705 253.044 227.658 253.044 227.658C253.044 227.658 256.47 232.683 261.107 234.647C265.743 236.611 273.76 237.045 273.76 237.045C273.76 237.045 274.902 259.291 275.507 262.569C276.113 265.846 283.581 267.799 294.487 268.279C305.394 268.758 320.662 264.796 322.626 262.569C324.591 260.342 321.975 237.045 321.975 237.045C325.524 236.522 329.025 235.72 332.448 234.647C336.81 233.116 342.486 225.693 342.486 225.693C342.486 225.693 334.629 206.496 333.099 203.23C331.568 199.964 332.665 198.662 326.555 194.288C322.655 191.544 318.488 189.198 314.118 187.288C314.118 187.288 304.982 182.926 297.32 182.058C289.657 181.19 286.848 182.72 286.848 182.72Z" fill="white" stroke="#263238" stroke-linecap="round" stroke-linejoin="round"/>
<path d="M318.481 153.028C318.481 153.028 320.879 154.341 320.879 155.655C320.879 156.968 318.264 159.8 318.264 159.8C318.498 161.826 318.498 163.872 318.264 165.898C317.83 168.08 320.011 170.466 318.264 172.008C316.517 173.55 311.286 173.538 311.286 173.538L309.756 183.143L290.125 180.516L289.474 174.406C289.474 174.406 284.232 170.044 282.485 165.27C280.738 160.497 280.966 159.161 281.343 156.134C281.72 153.108 285.055 146.747 291.621 145.228C297.366 143.856 303.362 143.93 309.071 145.445C313.685 146.678 318.481 153.028 318.481 153.028Z" fill="white" stroke="#263238" stroke-linecap="round" stroke-linejoin="round"/>
<path d="M309.733 168.113V168.057V168.113Z" fill="white" stroke="#263238" stroke-linecap="round" stroke-linejoin="round"/>
<path d="M304.092 173.082C306.479 172.11 308.467 170.359 309.733 168.114C309.653 168.274 309.311 168.719 308.237 168.719C306.924 168.719 303.863 166.321 302.995 164.151C302.127 161.981 304.309 159.343 305.828 159.343C307.346 159.343 309.539 162.404 311.286 161.308C313.034 160.211 312.817 155.426 312.817 155.426C313.248 153.221 313.907 151.067 314.781 148.997C313.167 147.387 311.217 146.155 309.071 145.388C303.362 143.873 297.366 143.799 291.621 145.171C285.077 146.69 281.8 153.017 281.343 156.077C280.886 159.138 280.692 160.44 282.485 165.213C284.278 169.987 289.474 174.349 289.474 174.349C293.174 174.612 299.946 174.829 304.092 173.082Z" fill="#263238" stroke="#263238" stroke-linecap="round" stroke-linejoin="round"/>
<path d="M280.532 185.073C280.532 185.073 284.449 178.746 286.414 177.878C288.378 177.01 302.561 177.01 305.394 177.444C308.226 177.878 313.251 181.372 314.118 183.337C314.986 185.301 315.649 186.82 315.649 186.82V188.133C315.649 188.133 306.273 183.771 297.377 183.771C291.738 183.792 286.108 184.227 280.532 185.073Z" fill="white" stroke="#263238" stroke-linecap="round" stroke-linejoin="round"/>
<path d="M315.649 188.133C313.819 192.048 311.736 195.84 309.413 199.485C306.95 203.5 305.03 207.824 303.703 212.343L310.555 213.052C310.555 213.052 315.318 200.49 318.173 196.39C319.332 194.64 320.607 192.969 321.987 191.388C321.987 191.388 319.269 187.962 315.649 188.133Z" fill="#263238" stroke="#263238" stroke-linecap="round" stroke-linejoin="round"/>
<path d="M280.532 185.073C280.532 185.073 279.39 193.067 279.893 197.349C280.155 200.991 280.155 204.647 279.893 208.289L274.891 209.957C274.891 209.957 273.463 196.15 273.943 193.055C274.423 189.96 274.891 187.825 274.891 187.825C274.891 187.825 278.066 185.004 280.532 185.073Z" fill="#263238" stroke="#263238" stroke-linecap="round" stroke-linejoin="round"/>
<path d="M270.369 258.286C270.369 258.286 267.045 259.428 265.801 265.138C264.556 270.848 267.947 277.049 274.845 279.904C281.743 282.759 292.946 284.187 303.395 284.666C313.844 285.146 322.432 284.187 326.235 277.517C330.038 270.848 328.611 263.711 324.088 262.523C319.566 261.335 314.564 263.95 297.194 262.283C288.173 261.549 279.212 260.214 270.369 258.286Z" fill="#FFC100" stroke="#263238" stroke-linecap="round" stroke-linejoin="round"/>
<path d="M312.371 266.52C307.975 271.648 306.878 284.107 315.672 284.107H316.117C320.685 283.193 324.214 281.263 326.315 277.575C329.273 272.39 329.056 266.92 326.692 264.19L323.152 261.804C321.121 261.766 319.106 262.168 317.245 262.982C315.384 263.796 313.722 265.003 312.371 266.52Z" fill="#FFC100" stroke="#263238" stroke-linecap="round" stroke-linejoin="round"/>
<path d="M317.682 273.235C317.682 273.235 317.51 276.878 321.827 275.519C322.844 275.112 323.726 274.427 324.373 273.543C325.019 272.658 325.403 271.61 325.481 270.517C325.517 270.248 325.536 269.977 325.538 269.706C325.596 267.879 324.956 266.28 323.654 265.903C320.662 265.07 313.376 270.54 313.376 274.525C313.376 278.511 318.024 279.836 322.17 277.175C326.315 274.514 327.48 271.705 327.149 265.07" stroke="#263238" stroke-linecap="round" stroke-linejoin="round"/>
<path d="M271.328 204.726C271.328 204.726 290.365 206.394 300.609 206.622C310.852 206.85 315.843 205.914 318.881 209.249C321.918 212.583 325.733 248.282 327.446 254.712C329.159 261.141 326.304 263.048 319.121 265.663C311.937 268.279 300.552 268.279 287.453 265.663C274.354 263.048 268.644 261.095 267.217 255.385C265.789 249.675 266.748 231.335 266.748 221.125C266.748 210.916 265.846 204.966 271.328 204.726Z" fill="#FFC100" stroke="#263238" stroke-linecap="round" stroke-linejoin="round"/>
<path d="M316.334 241.921C319.338 241.601 322.291 240.915 325.127 239.877C323.3 227.315 320.982 211.418 318.972 209.249C315.877 205.914 310.875 206.862 300.7 206.622C290.525 206.382 271.419 204.726 271.419 204.726C265.938 204.966 266.851 210.916 266.851 221.148C266.851 225.385 266.68 230.992 266.6 236.531C267.947 237.342 283.581 245.815 316.334 241.921Z" fill="#FFC100" stroke="#263238" stroke-linecap="round" stroke-linejoin="round"/>
<path d="M270.791 235.378C271.099 238.829 271.007 242.305 270.517 245.736C270.043 248.617 269.772 251.529 269.706 254.449L274.331 256.356C274.331 256.356 275.153 249.002 275.702 245.736C276.074 242.659 276.257 239.562 276.25 236.463L270.791 235.378Z" fill="#263238" stroke="#263238" stroke-linecap="round" stroke-linejoin="round"/>
<path d="M306.216 238.678C306.216 238.678 305.942 243.589 305.405 247.129C304.868 250.669 304.035 259.051 304.035 259.051H309.482C309.482 259.051 311.389 250.669 311.389 247.403C311.389 244.137 311.663 238.404 311.663 238.404L306.216 238.678Z" fill="#263238" stroke="#263238" stroke-linecap="round" stroke-linejoin="round"/>
<path d="M327.503 254.666C325.835 248.237 322.033 212.538 318.938 209.203C318.46 208.697 317.91 208.266 317.305 207.924C315.318 208.563 312.394 210.139 313.696 213.725C315.603 218.956 317.51 244.673 316.551 252.759C315.592 260.844 310.361 264.67 315.123 266.566L315.386 266.668C316.673 266.409 317.94 266.058 319.178 265.618C326.315 263.048 329.17 261.141 327.503 254.666Z" fill="#FFC100" stroke="#263238" stroke-linecap="round" stroke-linejoin="round"/>
<path d="M297.32 297.206L287.99 294.705" stroke="white" stroke-linecap="round" stroke-linejoin="round"/>
<path d="M277.015 142.327C277.015 142.327 279.653 157.173 279.653 158.898C279.653 160.622 280.087 161.079 287.076 161.513C294.065 161.947 303.646 162.392 309.105 159.56C314.564 156.728 324.157 150.173 326.121 145.856C328.085 141.539 326.772 140.843 321.553 140.843H315.009C315.009 140.843 313.479 134.516 309.299 132.552C305.12 130.588 298.61 126.659 291.633 129.72C284.655 132.78 279.447 134.231 277.015 142.327Z" fill="#FFC100" stroke="#263238" stroke-linecap="round" stroke-linejoin="round"/>
<path d="M313.468 156.066C312.992 156.518 312.625 157.073 312.394 157.687C317.773 154.433 324.511 149.385 326.098 145.811C328.062 141.448 326.749 140.797 321.53 140.797H314.986C314.986 140.797 316.951 147.124 316.951 149.305C316.951 151.486 316.083 153.451 313.468 156.066Z" fill="#263238" stroke="#263238" stroke-linecap="round" stroke-linejoin="round"/>
<path d="M283.639 159.469C283.639 159.469 281.811 153.085 285.157 152.48C288.503 151.875 292.158 160.086 292.158 160.086C289.304 160.414 286.415 160.205 283.639 159.469Z" fill="#263238" stroke="#263238" stroke-linecap="round" stroke-linejoin="round"/>
<path d="M374.953 449.343H417.892C417.07 444.09 413.689 445.015 413.244 436.872C413.016 432.772 416.807 427.736 416.487 422.323C416.213 417.881 411.839 413.335 411.497 408.265C411.2 403.697 414.923 398.604 414.569 393.67C414.226 389.011 409.784 384.534 409.396 379.681C409.007 374.827 412.673 369.825 412.239 365.04C411.805 360.255 407.294 355.904 406.815 351.154C406.335 346.403 409.864 341.081 409.316 336.445C408.745 331.523 404.097 327.309 403.469 322.741C402.772 317.682 406.061 312.291 405.296 307.895C404.348 302.55 399.38 298.69 398.33 294.75C396.377 287.407 396.628 280.327 394.321 279.904C392.014 279.482 391.306 286.345 389.445 294.099C388.508 297.993 383.643 301.945 382.844 307.289C382.193 311.618 385.631 316.882 385.071 321.907C384.568 326.418 380.035 330.746 379.601 335.611C379.178 340.179 382.855 345.295 382.501 350.103C382.147 354.911 377.751 359.239 377.454 364.001C377.157 368.763 380.937 373.742 380.674 378.436C380.412 383.13 376.106 387.789 375.878 392.414C375.638 397.313 379.509 402.247 379.304 406.792C379.098 411.817 374.839 416.43 374.736 420.827C374.542 426.172 378.459 431.105 378.345 435.171C378.082 443.987 374.039 442.16 373.891 449.263L374.953 449.343Z" fill="#FFC100"/>
<path opacity="0.5" d="M374.953 449.343H417.892C417.07 444.09 413.689 445.015 413.244 436.872C413.016 432.772 416.807 427.736 416.487 422.323C416.213 417.881 411.839 413.335 411.497 408.265C411.2 403.697 414.923 398.604 414.569 393.67C414.226 389.011 409.784 384.534 409.396 379.681C409.007 374.827 412.673 369.825 412.239 365.04C411.805 360.255 407.294 355.904 406.815 351.154C406.335 346.403 409.864 341.081 409.316 336.445C408.745 331.523 404.097 327.309 403.469 322.741C402.772 317.682 406.061 312.291 405.296 307.895C404.348 302.55 399.38 298.69 398.33 294.75C396.377 287.407 396.628 280.327 394.321 279.904C392.014 279.482 391.306 286.345 389.445 294.099C388.508 297.993 383.643 301.945 382.844 307.289C382.193 311.618 385.631 316.882 385.071 321.907C384.568 326.418 380.035 330.746 379.601 335.611C379.178 340.179 382.855 345.295 382.501 350.103C382.147 354.911 377.751 359.239 377.454 364.001C377.157 368.763 380.937 373.742 380.674 378.436C380.412 383.13 376.106 387.789 375.878 392.414C375.638 397.313 379.509 402.247 379.304 406.792C379.098 411.817 374.839 416.43 374.736 420.827C374.542 426.172 378.459 431.105 378.345 435.171C378.082 443.987 374.039 442.16 373.891 449.263L374.953 449.343Z" fill="white"/>
<path d="M393.385 294.008V447.356" stroke="#263238" stroke-miterlimit="10"/>
<path d="M400.088 310.087L393.099 316.128L387.378 308.5" stroke="#263238" stroke-miterlimit="10"/>
<path d="M400.088 336.776L393.099 342.817L387.378 335.188" stroke="#263238" stroke-miterlimit="10"/>
<path d="M400.088 361.877L393.099 367.918L387.378 360.29" stroke="#263238" stroke-miterlimit="10"/>
<path d="M400.088 391.752L393.099 397.793L387.378 390.164" stroke="#263238" stroke-miterlimit="10"/>
<path d="M400.088 421.935L393.099 427.976L387.378 420.347" stroke="#263238" stroke-miterlimit="10"/>
<path d="M129.046 423.111H184.753C183.679 416.259 179.305 417.492 178.723 406.929C178.437 401.619 183.36 395.029 182.926 388.052C182.583 382.342 176.907 376.392 176.462 369.78C176.062 363.841 180.904 357.218 180.436 350.845C179.991 344.793 174.246 338.98 173.732 332.699C173.219 326.418 177.981 319.897 177.421 313.696C176.862 307.495 171.003 301.785 170.386 295.675C169.747 289.383 174.338 282.611 173.641 276.592C172.887 270.209 166.869 264.693 166.047 258.811C165.133 252.256 169.404 245.256 168.411 239.592C167.177 232.66 160.736 227.646 159.378 222.542C156.842 213.006 157.162 203.824 154.17 203.23C150.984 202.591 150.264 211.59 147.843 221.651C146.633 226.71 140.318 231.826 139.278 238.781C138.445 244.388 142.898 251.217 142.168 257.749C141.517 263.596 135.647 269.169 135.076 275.565C134.539 281.537 139.301 288.127 138.833 294.373C138.376 300.449 132.678 306.239 132.278 312.406C131.878 318.572 136.846 325.036 136.469 331.123C136.092 337.21 130.531 343.262 130.245 349.269C129.937 355.619 134.95 362.025 134.71 367.918C134.436 374.45 128.92 380.48 128.715 386.19C128.464 393.111 133.557 399.506 133.397 404.782C133.054 416.202 127.813 413.861 127.687 423.054L129.046 423.111Z" fill="#FFC100"/>
<path d="M152.994 221.571V420.53" stroke="#263238" stroke-miterlimit="10"/>
<path d="M161.696 242.435L152.617 250.269L145.194 240.368" stroke="#263238" stroke-miterlimit="10"/>
<path d="M161.696 277.061L152.617 284.895L145.194 275.005" stroke="#263238" stroke-miterlimit="10"/>
<path d="M161.696 309.63L152.617 317.465L145.194 307.575" stroke="#263238" stroke-miterlimit="10"/>
<path d="M161.696 348.39L152.617 356.224L145.194 346.323" stroke="#263238" stroke-miterlimit="10"/>
<path d="M161.696 387.549L152.617 395.383L145.194 385.494" stroke="#263238" stroke-miterlimit="10"/>
<path d="M95.3456 431.824H136.595C135.807 426.777 132.563 427.668 132.129 419.845C131.912 415.905 135.555 411.04 135.247 405.867C134.984 401.607 130.782 397.233 130.462 392.357C130.165 387.96 133.751 383.084 133.397 378.345C133.077 373.857 128.829 369.563 128.441 364.903C128.052 360.244 131.581 355.425 131.17 350.834C130.759 346.243 126.419 342.018 125.963 337.495C125.506 332.973 128.886 327.823 128.361 323.369C127.813 318.641 123.347 314.553 122.742 310.201C122.068 305.348 125.232 300.163 124.489 295.972C123.587 290.845 118.779 287.133 117.809 283.342C115.936 276.295 116.164 269.489 113.96 269.044C111.756 268.598 111.059 275.245 109.267 282.691C108.364 286.436 103.694 290.228 102.928 295.355C102.312 299.524 105.612 304.571 105.075 309.402C104.584 313.73 100.233 317.887 99.8108 322.592C99.4111 327.023 102.94 331.899 102.597 336.525C102.255 341.15 98.0292 345.307 97.7437 349.875C97.4582 354.443 101.101 359.228 100.85 363.738C100.599 368.249 96.4533 372.726 96.282 377.168C96.0536 381.873 99.708 386.613 99.5824 390.975C99.3882 395.806 95.2999 400.237 95.1514 404.462C94.9687 409.601 98.7373 414.329 98.5774 418.235C98.3262 426.72 94.4434 424.961 94.3063 431.779L95.3456 431.824Z" fill="#FFC100"/>
<path opacity="0.5" d="M95.3456 431.824H136.595C135.807 426.777 132.563 427.668 132.129 419.845C131.912 415.905 135.555 411.04 135.247 405.867C134.984 401.607 130.782 397.233 130.462 392.357C130.165 387.96 133.751 383.084 133.397 378.345C133.077 373.857 128.829 369.563 128.441 364.903C128.052 360.244 131.581 355.425 131.17 350.834C130.759 346.243 126.419 342.018 125.963 337.495C125.506 332.973 128.886 327.823 128.361 323.369C127.813 318.641 123.347 314.553 122.742 310.201C122.068 305.348 125.232 300.163 124.489 295.972C123.587 290.845 118.779 287.133 117.809 283.342C115.936 276.295 116.164 269.489 113.96 269.044C111.756 268.598 111.059 275.245 109.267 282.691C108.364 286.436 103.694 290.228 102.928 295.355C102.312 299.524 105.612 304.571 105.075 309.402C104.584 313.73 100.233 317.887 99.8108 322.592C99.4111 327.023 102.94 331.899 102.597 336.525C102.255 341.15 98.0292 345.307 97.7437 349.875C97.4582 354.443 101.101 359.228 100.85 363.738C100.599 368.249 96.4533 372.726 96.282 377.168C96.0536 381.873 99.708 386.613 99.5824 390.975C99.3882 395.806 95.2999 400.237 95.1514 404.462C94.9687 409.601 98.7373 414.329 98.5774 418.235C98.3262 426.72 94.4434 424.961 94.3063 431.779L95.3456 431.824Z" fill="white"/>
<path d="M113.058 282.611V429.917" stroke="#263238" stroke-miterlimit="10"/>
<path d="M119.499 298.051L112.784 303.852L107.291 296.52" stroke="#263238" stroke-miterlimit="10"/>
<path d="M119.499 323.688L112.784 329.49L107.291 322.158" stroke="#263238" stroke-miterlimit="10"/>
<path d="M119.499 347.808L112.784 353.609L107.291 346.277" stroke="#263238" stroke-miterlimit="10"/>
<path d="M119.499 376.495L112.784 382.296L107.291 374.976" stroke="#263238" stroke-miterlimit="10"/>
<path d="M119.499 405.49L112.784 411.291L107.291 403.971" stroke="#263238" stroke-miterlimit="10"/>
<path d="M412.605 461.448H468.323C467.249 454.596 462.875 455.829 462.293 445.277C461.996 439.956 466.918 433.378 466.496 426.389C466.141 420.679 460.466 414.74 460.032 408.117C459.632 402.178 464.474 395.555 464.006 389.182C463.561 383.13 457.805 377.328 457.302 371.036C456.8 364.743 461.551 358.234 460.991 352.033C460.432 345.832 454.573 340.133 453.956 334.012C453.34 327.891 457.908 320.959 457.2 314.941C456.457 308.546 450.428 303.03 449.617 297.148C448.703 290.593 452.974 283.593 451.969 277.94C450.747 271.008 444.295 265.995 442.936 260.878C440.412 251.354 440.732 242.173 437.74 241.567C434.554 240.939 433.823 249.938 431.413 259.999C430.191 265.047 423.888 270.174 422.848 277.129C422.015 282.748 426.468 289.577 425.738 296.098C425.087 301.945 419.205 307.518 418.634 313.913C418.098 319.897 422.871 326.475 422.403 332.733C421.946 338.797 416.248 344.587 415.848 350.754C415.448 356.921 420.416 363.384 420.039 369.483C419.662 375.581 414.101 381.611 413.804 387.618C413.507 393.967 418.52 400.385 418.269 406.278C418.006 412.799 412.479 418.84 412.285 424.55C412.034 431.482 417.127 437.877 416.967 443.153C416.624 454.573 411.383 452.232 411.2 461.425L412.605 461.448Z" fill="#FFC100"/>
<path d="M436.529 259.919V458.878" stroke="#263238" stroke-miterlimit="10"/>
<path d="M445.22 280.772L436.153 288.606L428.73 278.717" stroke="#263238" stroke-miterlimit="10"/>
<path d="M445.22 315.409L436.153 323.243L428.73 313.342" stroke="#263238" stroke-miterlimit="10"/>
<path d="M445.22 347.979L436.153 355.802L428.73 345.912" stroke="#263238" stroke-miterlimit="10"/>
<path d="M445.22 386.727L436.153 394.561L428.73 384.671" stroke="#263238" stroke-miterlimit="10"/>
<path d="M445.22 425.898L436.153 433.732L428.73 423.831" stroke="#263238" stroke-miterlimit="10"/>
<path d="M204.412 302.263L197.427 302.03L193.232 427.82L200.217 428.053L204.412 302.263Z" fill="#263238" stroke="#263238" stroke-linecap="round" stroke-linejoin="round"/>
<path d="M232.705 266.965L228.902 267.879V280.464L233.116 281.697L232.705 266.965Z" fill="#FFC100" stroke="#263238" stroke-linecap="round" stroke-linejoin="round"/>
<path d="M158.989 260.022L159.172 302.676L229.907 310.007L229.234 323.506L255.283 301.157L232.705 266.965L232.648 280.475L158.989 260.022Z" fill="#263238" stroke="#263238" stroke-linecap="round" stroke-linejoin="round"/>
<path d="M158.989 260.022L153.279 260.661L153.999 304.549L159.172 302.676L158.989 260.022Z" fill="#FFC100" stroke="#263238" stroke-linecap="round" stroke-linejoin="round"/>
<path d="M153.999 304.549L226.687 311.743L229.907 310.007L159.172 302.676L153.999 304.549Z" fill="#FFC100" stroke="#263238" stroke-linecap="round" stroke-linejoin="round"/>
<path d="M226.687 311.743L226.504 323.654L229.234 323.506L229.907 310.007L226.687 311.743Z" fill="#FFC100" stroke="#263238" stroke-linecap="round" stroke-linejoin="round"/>
<path d="M86.8491 433.834C86.8491 433.834 185.267 385.288 334.914 410.069C452.163 429.483 490.763 479.64 490.763 479.64" fill="white"/>
<path d="M86.8491 433.834C86.8491 433.834 185.267 385.288 334.914 410.069C452.163 429.483 490.763 479.64 490.763 479.64" stroke="#263238" stroke-linecap="round" stroke-linejoin="round"/>
<path d="M255.18 412.319L236.737 404.862C145.605 409.43 88.505 437.98 88.505 437.98L81.082 439.67C75.0488 442.452 69.2179 445.654 63.6323 449.251L90.7205 449.685L137.143 446.659L103.831 458.741L136.115 451.672L189.572 449.651L158.293 441.589L206.702 436.541L161.296 437.546L197.84 430.089L245.096 422.414L227.966 421.398L232.203 419.993L255.18 412.319Z" fill="#FFC100"/>
<path d="M370.008 419.685L380.286 425.966L355.162 425.395L366.582 431.676L359.73 433.96L376.289 441.954L360.301 444.238L375.718 456.8L290.639 457.371L314.621 466.507L305.485 470.504L363.727 479.64L427.108 495.628L400.271 480.782C400.271 480.782 461.368 497.341 463.652 498.483C465.936 499.625 479.069 504.764 480.782 505.335C482.495 505.906 460.226 488.205 460.226 488.205L483.066 493.915L460.226 468.22L470.504 469.362L463.081 463.081L477.927 469.362C477.927 469.362 436.815 436.244 370.008 419.685Z" fill="#FFC100"/>
</svg>
